<svg fill="#E1306C" xmlns="http://www.w3.org/2000/svg" viewBox="0 0 24 24" width="48px" height="48px">
  <path d="M12 2.2c-3.29 0-3.68.02-4.97.07-1.3.06-2.18.28-2.93.6-.75.32-1.35.76-1.95 1.36s-1.04 1.2-1.36 1.95c-.32.75-.54 1.63-.6 2.93-.05 1.3-.07 1.68-.07 4.97s.02 3.68.07 4.97c.06 1.3.28 2.18.6 2.93.32.75.76 1.35 1.36 1.95.6.6 1.2 1.04 1.95 1.36.75.32 1.63.54 2.93.6 1.3.05 1.68.07 4.97.07s3.68-.02 4.97-.07c1.3-.06 2.18-.28 2.93-.6.75-.32 1.35-.76 1.95-1.36.6-.6 1.04-1.2 1.36-1.95.32-.75.54-1.63.6-2.93.05-1.3.07-1.68.07-4.97s-.02-3.68-.07-4.97c-.06-1.3-.28-2.18-.6-2.93-.32-.75-.76-1.35-1.36-1.95-.6-.6-1.2-1.04-1.95-1.36-.75-.32-1.63-.54-2.93-.6-1.29-.05-1.68-.07-4.97-.07zm0 1.8c3.26 0 3.63.02 4.91.07 1.15.05 1.84.26 2.32.45.58.24 1.02.54 1.46.98.44.44.74.88.98 1.46.2.48.41 1.17.45 2.32.05 1.28.07 1.65.07 4.91s-.02 3.63-.07 4.91c-.05 1.15-.26 1.84-.45 2.32-.24.58-.54 1.02-.98 1.46-.44.44-.88.74-1.46.98-.48.2-1.17.41-2.32.45-1.28.05-1.65.07-4.91.07s-3.63-.02-4.91-.07c-1.15-.05-1.84-.26-2.32-.45-.58-.24-1.02-.54-1.46-.98-.44-.44-.74-.88-.98-1.46-.2-.48-.41-1.17-.45-2.32-.05-1.28-.07-1.65-.07-4.91s.02-3.63.07-4.91c.05-1.15.26-1.84.45-2.32.24-.58.54-1.02.98-1.46.44-.44.88-.74 1.46-.98.48-.2 1.17-.41 2.32-.45 1.28-.05 1.65-.07 4.91-.07z"/>
  <path d="M12 7.95c-2.68 0-4.86 2.18-4.86 4.86s2.18 4.86 4.86 4.86 4.86-2.18 4.86-4.86-2.18-4.86-4.86-4.86zm0 8.52c-1.83 0-3.32-1.49-3.32-3.32s1.49-3.32 3.32-3.32 3.32 1.49 3.32 3.32-1.49 3.32-3.32 3.32z"/>
  <circle cx="16.11" cy="7.46" r="1.19"/>
</svg>